<svg width="1265" height="84" viewBox="0 0 1265 84" fill="none" xmlns="http://www.w3.org/2000/svg">
<path d="M1200.76 51.0569C1205.21 45.3083 1215.64 32.224 1213.31 32.3737C1212.29 32.4389 1196.23 36.7805 1189.68 38.0284M1199.25 40.9172L1201.03 43.2187" stroke="black" stroke-width="16" stroke-linecap="round"/>
<path d="M1051.65 51.1018C1047.2 45.3533 1036.77 32.2689 1039.1 32.4187C1040.12 32.4839 1056.18 36.8254 1062.72 38.0733M1053.15 40.9621L1051.38 43.2637" stroke="black" stroke-width="16" stroke-linecap="round"/>
<path d="M1159.48 75.114C1163.93 69.3655 1174.36 56.2811 1172.03 56.4309C1171.01 56.4961 1154.95 60.8376 1148.4 62.0855M1157.97 64.9743L1159.75 67.2759" stroke="black" stroke-width="16" stroke-linecap="round"/>
<path d="M1092.93 75.1589C1088.47 69.4104 1078.05 56.326 1080.38 56.4758C1081.4 56.541 1097.46 60.8826 1104 62.1305M1094.43 65.0192L1092.65 67.3208" stroke="black" stroke-width="16" stroke-linecap="round"/>
<path d="M1244.46 28.0486C1248.62 22.0824 1258.38 8.48788 1256.05 8.75535C1255.04 8.87175 1239.22 14.0192 1232.75 15.5963M1242.45 17.9978L1244.34 20.2067" stroke="black" stroke-width="16" stroke-linecap="round"/>
<path d="M1007.94 28.0935C1003.78 22.1273 994.031 8.5328 996.353 8.80027C997.364 8.91668 1013.19 14.0642 1019.66 15.6412M1009.96 18.0428L1008.06 20.2516" stroke="black" stroke-width="16" stroke-linecap="round"/>
<path d="M870.757 51.0569C875.211 45.3083 885.639 32.224 883.306 32.3737C882.29 32.4389 866.229 36.7805 859.683 38.0284M869.253 40.9172L871.031 43.2187" stroke="black" stroke-width="16" stroke-linecap="round"/>
<path d="M721.65 51.1018C717.195 45.3533 706.768 32.2689 709.101 32.4187C710.116 32.4839 726.177 36.8254 732.724 38.0733M723.154 40.9621L721.376 43.2637" stroke="black" stroke-width="16" stroke-linecap="round"/>
<path d="M829.478 75.114C833.933 69.3655 844.36 56.2811 842.027 56.4309C841.011 56.4961 824.951 60.8376 818.404 62.0855M827.974 64.9743L829.752 67.2759" stroke="black" stroke-width="16" stroke-linecap="round"/>
<path d="M762.929 75.1589C758.474 69.4104 748.047 56.326 750.38 56.4758C751.395 56.541 767.456 60.8826 774.003 62.1305M764.433 65.0192L762.655 67.3208" stroke="black" stroke-width="16" stroke-linecap="round"/>
<path d="M914.464 28.0486C918.623 22.0824 928.376 8.48788 926.053 8.75535C925.042 8.87175 909.222 14.0192 902.746 15.5963M912.45 17.9978L914.342 20.2067" stroke="black" stroke-width="16" stroke-linecap="round"/>
<path d="M677.942 28.0935C673.784 22.1273 664.031 8.5328 666.353 8.80027C667.364 8.91668 683.185 14.0642 689.66 15.6412M679.957 18.0428L678.065 20.2516" stroke="black" stroke-width="16" stroke-linecap="round"/>
<path d="M540.757 51.0569C545.211 45.3083 555.639 32.224 553.306 32.3737C552.29 32.4389 536.229 36.7805 529.683 38.0284M539.253 40.9172L541.031 43.2187" stroke="black" stroke-width="16" stroke-linecap="round"/>
<path d="M391.65 51.1018C387.195 45.3533 376.768 32.2689 379.101 32.4187C380.116 32.4839 396.177 36.8254 402.724 38.0733M393.154 40.9621L391.376 43.2637" stroke="black" stroke-width="16" stroke-linecap="round"/>
<path d="M499.478 75.114C503.933 69.3655 514.36 56.2811 512.027 56.4309C511.011 56.4961 494.951 60.8376 488.404 62.0855M497.974 64.9743L499.752 67.2759" stroke="black" stroke-width="16" stroke-linecap="round"/>
<path d="M432.929 75.1589C428.474 69.4104 418.047 56.326 420.38 56.4758C421.395 56.541 437.456 60.8826 444.003 62.1305M434.433 65.0192L432.655 67.3208" stroke="black" stroke-width="16" stroke-linecap="round"/>
<path d="M584.464 28.0486C588.623 22.0824 598.376 8.48788 596.053 8.75535C595.042 8.87175 579.222 14.0192 572.746 15.5963M582.45 17.9978L584.342 20.2067" stroke="black" stroke-width="16" stroke-linecap="round"/>
<path d="M347.942 28.0935C343.784 22.1273 334.031 8.5328 336.353 8.80027C337.364 8.91668 353.185 14.0642 359.66 15.6412M349.957 18.0428L348.065 20.2516" stroke="black" stroke-width="16" stroke-linecap="round"/>
<path d="M212.757 51.0569C217.211 45.3083 227.639 32.224 225.306 32.3737C224.29 32.4389 208.229 36.7805 201.683 38.0284M211.253 40.9172L213.031 43.2187" stroke="black" stroke-width="16" stroke-linecap="round"/>
<path d="M63.6499 51.1018C59.1952 45.3533 48.7679 32.2689 51.1011 32.4187C52.1165 32.4839 68.1773 36.8254 74.724 38.0733M65.1538 40.9621L63.3758 43.2637" stroke="black" stroke-width="16" stroke-linecap="round"/>
<path d="M171.478 75.114C175.933 69.3655 186.36 56.2811 184.027 56.4309C183.011 56.4961 166.951 60.8376 160.404 62.0855M169.974 64.9743L171.752 67.2759" stroke="black" stroke-width="16" stroke-linecap="round"/>
<path d="M104.929 75.1589C100.474 69.4104 90.0467 56.326 92.3799 56.4758C93.3953 56.541 109.456 60.8826 116.003 62.1305M106.433 65.0192L104.655 67.3208" stroke="black" stroke-width="16" stroke-linecap="round"/>
<path d="M256.464 28.0486C260.623 22.0824 270.376 8.48788 268.053 8.75535C267.042 8.87175 251.222 14.0192 244.746 15.5963M254.45 17.9978L256.342 20.2067" stroke="black" stroke-width="16" stroke-linecap="round"/>
<path d="M19.9423 28.0935C15.7838 22.1273 6.03079 8.5328 8.35347 8.80027C9.36426 8.91668 25.1852 14.0642 31.6605 15.6412M21.9566 18.0428L20.0646 20.2516" stroke="black" stroke-width="16" stroke-linecap="round"/>
</svg>
